<svg width="19" height="19" viewBox="0 0 19 19" fill="none" xmlns="http://www.w3.org/2000/svg">
<g clip-path="url(#clip0)">
<path d="M17.9514 19.0001C18.5304 19.0001 19 18.5306 19 17.9514V1.04864C19 0.469434 18.5304 0 17.9514 0H1.04864C0.469359 0 0 0.469434 0 1.04864V17.9514C0 18.5306 0.469359 19.0001 1.04864 19.0001H17.9514Z" fill="#395185"/>
<path d="M13.1096 19.0001V11.6423H15.5794L15.9492 8.77482H13.1096V6.94399C13.1096 6.11378 13.3402 5.54801 14.5308 5.54801L16.0492 5.54734V2.98271C15.7865 2.94775 14.8852 2.86967 13.8366 2.86967C11.6473 2.86967 10.1485 4.20598 10.1485 6.6601V8.77482H7.67244V11.6423H10.1485V19.0001H13.1096Z" fill="white"/>
</g>
<defs>
<clipPath id="clip0">
<rect width="19" height="19" fill="white"/>
</clipPath>
</defs>
</svg>
