<svg width="20" height="20" viewBox="0 0 18 20" fill="none" xmlns="http://www.w3.org/2000/svg">
<path d="M16.0714 1.25H1.92857C0.863839 1.25 0 2.08984 0 3.125V16.875C0 17.9102 0.863839 18.75 1.92857 18.75H16.0714C17.1362 18.75 18 17.9102 18 16.875V3.125C18 2.08984 17.1362 1.25 16.0714 1.25ZM11.1415 16.2383C10.804 16.2969 10.6795 16.0938 10.6795 15.9258C10.6795 15.7148 10.6875 14.6367 10.6875 13.7656C10.6875 13.1562 10.4786 12.7695 10.2335 12.5664C11.7201 12.4063 13.2871 12.207 13.2871 9.71094C13.2871 9 13.0259 8.64453 12.6 8.1875C12.6683 8.01953 12.8973 7.32812 12.5317 6.42969C11.9732 6.26172 10.6955 7.12891 10.6955 7.12891C10.1652 6.98438 9.59062 6.91016 9.02411 6.91016C8.45759 6.91016 7.88304 6.98438 7.35268 7.12891C7.35268 7.12891 6.075 6.26172 5.51652 6.42969C5.15089 7.32422 5.37589 8.01562 5.44821 8.1875C5.02232 8.64453 4.82143 9 4.82143 9.71094C4.82143 12.1953 6.32009 12.4063 7.8067 12.5664C7.61384 12.7344 7.44107 13.0234 7.3808 13.4375C6.99911 13.6055 6.02277 13.8945 5.44018 12.8945C5.07455 12.2773 4.41563 12.2266 4.41563 12.2266C3.76473 12.2188 4.37143 12.625 4.37143 12.625C4.80536 12.8203 5.11071 13.5703 5.11071 13.5703C5.50045 14.7305 7.36473 14.3398 7.36473 14.3398C7.36473 14.8828 7.37277 15.7656 7.37277 15.9258C7.37277 16.0938 7.25223 16.2969 6.91071 16.2383C4.25893 15.375 2.40268 12.9219 2.40268 10.0547C2.40268 6.46875 5.22321 3.74609 8.91161 3.74609C12.6 3.74609 15.5893 6.46875 15.5893 10.0547C15.5933 12.9219 13.7933 15.3789 11.1415 16.2383ZM7.2 13.8516C7.12366 13.8672 7.05134 13.8359 7.0433 13.7852C7.03527 13.7266 7.0875 13.6758 7.16384 13.6602C7.24018 13.6523 7.3125 13.6836 7.32054 13.7344C7.33259 13.7852 7.28036 13.8359 7.2 13.8516ZM6.8183 13.8164C6.8183 13.8672 6.75804 13.9102 6.67768 13.9102C6.58929 13.918 6.52902 13.875 6.52902 13.8164C6.52902 13.7656 6.58929 13.7227 6.66964 13.7227C6.74598 13.7148 6.8183 13.7578 6.8183 13.8164ZM6.26786 13.7734C6.25179 13.8242 6.17143 13.8477 6.10312 13.8242C6.02679 13.8086 5.97455 13.75 5.99063 13.6992C6.0067 13.6484 6.08705 13.625 6.15536 13.6406C6.23571 13.6641 6.28795 13.7227 6.26786 13.7734ZM5.77366 13.5625C5.7375 13.6055 5.66116 13.5977 5.60089 13.5391C5.54062 13.4883 5.52455 13.4141 5.56473 13.3789C5.60089 13.3359 5.67723 13.3438 5.7375 13.4023C5.78973 13.4531 5.80982 13.5312 5.77366 13.5625ZM5.40804 13.207C5.37188 13.2305 5.30357 13.207 5.25937 13.1484C5.21518 13.0898 5.21518 13.0234 5.25937 12.9961C5.30357 12.9609 5.37188 12.9883 5.40804 13.0469C5.45223 13.1055 5.45223 13.1758 5.40804 13.207ZM5.14688 12.8281C5.11071 12.8633 5.05045 12.8438 5.00625 12.8047C4.96205 12.7539 4.95402 12.6953 4.99018 12.668C5.02634 12.6328 5.08661 12.6523 5.1308 12.6914C5.175 12.7422 5.18304 12.8008 5.14688 12.8281ZM4.87768 12.5391C4.86161 12.5742 4.80937 12.582 4.76518 12.5547C4.71295 12.5312 4.68884 12.4883 4.70491 12.4531C4.72098 12.4297 4.76518 12.418 4.81741 12.4375C4.86964 12.4648 4.89375 12.5078 4.87768 12.5391Z" fill="black"/>
</svg>
