<svg width="24" height="19" viewBox="0 0 24 19" fill="none" xmlns="http://www.w3.org/2000/svg">
<g clip-path="url(#clip0)">
<path d="M5.45456 18.9065V9.16923L2.57878 6.40655L0 4.87346V17.1881C0 18.1389 0.733594 18.9065 1.63641 18.9065H5.45456Z" fill="#4285F4"/>
<path d="M18.5454 18.9065H22.3636C23.2691 18.9065 24 18.136 24 17.1881V4.87355L21.0791 6.62952L18.5454 9.16922V18.9065Z" fill="#34A853"/>
<path d="M5.45456 9.16924L5.06325 5.36461L5.45456 1.72321L12 6.87821L18.5454 1.72321L18.9832 5.16801L18.5454 9.16924L12 14.3242L5.45456 9.16924Z" fill="#EA4335"/>
<path d="M18.5454 1.72321V9.16924L24 4.87347V2.58234C24 0.457394 21.69 -0.753979 20.0728 0.520399L18.5454 1.72321Z" fill="#FBBC04"/>
<path d="M0 4.87331L2.50866 6.84911L5.45456 9.16908V1.72305L3.92719 0.520245C2.30719 -0.754231 0 0.45724 0 2.58209V4.87321V4.87331Z" fill="#C5221F"/>
</g>
<defs>
<clipPath id="clip0">
<rect width="24" height="19" fill="white"/>
</clipPath>
</defs>
</svg>
