<svg width="42" height="42" viewBox="0 0 42 42" fill="none" xmlns="http://www.w3.org/2000/svg">
<path d="M0 0H42V42H0V0Z" fill="#F5DE19"/>
<path d="M28.2135 32.8125C28.5714 33.5394 29.1273 34.1504 29.8174 34.575C30.5074 34.9996 31.3034 35.2206 32.1135 35.2125C33.7485 35.2125 34.794 34.395 34.794 33.2625C34.794 31.9125 33.72 31.4295 31.92 30.642L30.933 30.219C28.083 29.0055 26.193 27.486 26.193 24.273C26.193 21.3135 28.443 19.059 31.9725 19.059C33.1151 18.9765 34.2566 19.2322 35.2548 19.7942C36.253 20.3563 37.0636 21.1998 37.5855 22.2195L34.5 24.192C34.299 23.6864 33.9491 23.2538 33.4967 22.9516C33.0442 22.6494 32.5106 22.4919 31.9665 22.5C31.7292 22.4762 31.4895 22.5022 31.2627 22.5762C31.0359 22.6502 30.827 22.7706 30.6493 22.9298C30.4717 23.0889 30.3291 23.2834 30.2308 23.5007C30.1324 23.718 30.0804 23.9535 30.078 24.192C30.078 25.3755 30.8115 25.8555 32.505 26.592L33.492 27.015C36.846 28.4535 38.742 29.919 38.742 33.2145C38.742 36.768 35.9505 38.715 32.202 38.715C30.7415 38.8081 29.2852 38.4764 28.0089 37.7602C26.7327 37.044 25.691 35.9737 25.0095 34.6785L28.2135 32.8125ZM14.271 33.1545C14.8905 34.254 15.4545 35.184 16.8105 35.184C18.1065 35.184 18.9255 34.677 18.9255 32.7045V19.284H22.872V32.757C22.872 36.843 20.472 38.703 16.9785 38.703C15.7436 38.7705 14.5172 38.4627 13.4605 37.8202C12.4038 37.1777 11.5663 36.2304 11.058 35.103L14.271 33.1545Z" fill="black"/>
</svg>
