<svg width="19" height="19" viewBox="0 0 18 19" fill="none" xmlns="http://www.w3.org/2000/svg">
<path d="M16.0714 0.3125H1.92857C0.863839 0.3125 0 1.19434 0 2.28125V16.7188C0 17.8057 0.863839 18.6875 1.92857 18.6875H16.0714C17.1362 18.6875 18 17.8057 18 16.7188V2.28125C18 1.19434 17.1362 0.3125 16.0714 0.3125ZM14.1067 6.82578C14.1147 6.94063 14.1147 7.05957 14.1147 7.17441C14.1147 10.7305 11.4629 14.8279 6.61741 14.8279C5.12277 14.8279 3.73661 14.385 2.57143 13.6221C2.78437 13.6467 2.98929 13.6549 3.20625 13.6549C4.43973 13.6549 5.57277 13.2283 6.47679 12.5064C5.31964 12.4818 4.34732 11.7066 4.01384 10.6402C4.41964 10.7018 4.78527 10.7018 5.20312 10.591C3.99777 10.3408 3.09375 9.25801 3.09375 7.94961V7.9168C3.4433 8.11777 3.85312 8.24082 4.28304 8.25723C3.9216 8.0118 3.62531 7.67885 3.42059 7.28809C3.21588 6.89733 3.10911 6.46091 3.10982 6.01777C3.10982 5.51738 3.23839 5.05801 3.46741 4.66016C4.76518 6.29258 6.71384 7.35898 8.89955 7.47383C8.52589 5.64863 9.86384 4.16797 11.471 4.16797C12.2304 4.16797 12.9134 4.49199 13.3955 5.01699C13.9902 4.90215 14.5607 4.67656 15.067 4.36895C14.8701 4.99238 14.4563 5.51738 13.9098 5.84961C14.4402 5.79219 14.9545 5.64043 15.4286 5.43125C15.071 5.96855 14.621 6.44434 14.1067 6.82578Z" fill="#00B9F7"/>
</svg>
